<svg xmlns="http://www.w3.org/2000/svg" xmlns:xlink="http://www.w3.org/1999/xlink" xmlns:lucid="lucid" width="1034.03" height="540"><g transform="translate(-245.96875 -300)" lucid:page-tab-id="0_0"><path d="M390 320h220v60H390z" fill="none"/><use xlink:href="#a" transform="matrix(1,0,0,1,390,320) translate(13.671875 39.231770833333336)"/><path d="M1120 770h140v40h-140z" fill="none"/><use xlink:href="#b" transform="matrix(1,0,0,1,1120,770) translate(17.979999999999997 26.552)"/><use xlink:href="#c" transform="matrix(1,0,0,1,1120,770) translate(33.459999999999994 26.552)"/><use xlink:href="#d" transform="matrix(1,0,0,1,1120,770) translate(51.172 26.552)"/><use xlink:href="#e" transform="matrix(1,0,0,1,1120,770) translate(68.88399999999999 26.552)"/><use xlink:href="#f" transform="matrix(1,0,0,1,1120,770) translate(86.596 26.552)"/><use xlink:href="#g" transform="matrix(1,0,0,1,1120,770) translate(104.30799999999999 26.552)"/><path d="M840 760h120v60H840z" fill="none"/><use xlink:href="#h" transform="matrix(1,0,0,1,840,760) translate(7.519999999999996 39.70666666666666)"/><use xlink:href="#i" transform="matrix(1,0,0,1,840,760) translate(33.76 39.70666666666666)"/><use xlink:href="#j" transform="matrix(1,0,0,1,840,760) translate(60 39.70666666666666)"/><use xlink:href="#k" transform="matrix(1,0,0,1,840,760) translate(86.24 39.70666666666666)"/><path d="M420 380v120h160V380zM420 440h160" stroke="#000" stroke-width="2" fill="#7ab648"/><use xlink:href="#l" transform="matrix(1,0,0,1,436,380) translate(3.794921875 37.693142361111114)"/><use xlink:href="#m" transform="matrix(1,0,0,1,436,440) translate(17.173828125 37.693142361111114)"/><path d="M600 380h140v180H600z" fill="none"/><path d="M600 560c6.2 0 11.25-5.04 11.25-11.25v-67.5c0-6.2 5.04-11.25 11.25-11.25-6.2 0-11.25-5.04-11.25-11.25v-67.5c0-6.2-5.04-11.25-11.25-11.25" stroke="#000" stroke-width="2" fill="none"/><use xlink:href="#n" transform="matrix(1,0,0,1,638.75,385) translate(0 92.69314236111111)"/><path d="M420 500h160v60H420z" stroke="#000" stroke-width="2" fill="#a3d977"/><use xlink:href="#o" transform="matrix(1,0,0,1,425,505) translate(14.794921875 33.127170138888886)"/><path d="M420 560v120h160V560zM420 620h160" stroke="#000" stroke-width="2" fill="#c7e8ac"/><use xlink:href="#p" transform="matrix(1,0,0,1,436,560) translate(17.173828125 37.693142361111114)"/><use xlink:href="#q" transform="matrix(1,0,0,1,436,620) translate(-9.583984375 37.693142361111114)"/><path d="M280 380h120v120H280z" fill="none"/><path d="M400 500c-4.14 0-7.5-3.36-7.5-7.5v-45c0-4.14-3.36-7.5-7.5-7.5 4.14 0 7.5-3.36 7.5-7.5v-45c0-4.14 3.36-7.5 7.5-7.5" stroke="#000" stroke-width="2" fill="none"/><use xlink:href="#r" transform="matrix(1,0,0,1,285,385) translate(-19.03125 62.693142361111114)"/><path d="M840 560v80h120v-80zM840 600h120" stroke="#000" stroke-width="2" fill="#99d2f2"/><path d="M582 591.3l5.77-.1 7.52-.5 8.44-.88 9.63-1.43 11.17-2.15 13.3-3.12 16.42-4.6 21.75-7.1 35.65-13.36 91.68-36.37 14.96-4.88 10.36-2.9 7.87-1.87 6.26-1.2 5.15-.76 4.35-.47 3.73-.24 3.25-.08 2.87.06 2.56.16 2.3.24 2.1.3 1.9.37 1.77.42 1.63.45 1.5.5 1.43.52 1.33.56 1.26.6 1.2.6 1.13.67 1.08.7 1.04.7 1 .76.96.8.93.84.9.88.88.93.85 1 .82 1.04.8 1.12.8 1.2.78 1.27.76 1.38.73 1.5.7 1.6.7 1.78.7 1.94.63 2.14.6 2.38.58 2.67.52 3 .43 3.44.33 3.96.2 4.6v.78" stroke="#000" stroke-width="2" fill="none"/><path d="M582.05 592.3l-1.05.03v-2l1-.02z"/><path d="M888.5 540.57l11.36 16.47 8.96-17.88" stroke="#000" stroke-width="2" fill="none"/><path d="M800.67 560H820v200h-19.33z" fill="none"/><path d="M820 760c-6.9 0-12.5-5.6-12.5-12.5v-75c0-6.9-5.6-12.5-12.5-12.5 6.9 0 12.5-5.6 12.5-12.5v-75c0-6.9 5.6-12.5 12.5-12.5" stroke="#000" stroke-width="2" fill="none"/><path d="M760 560h20v80h-20z" fill="none"/><path d="M780 640c-2.76 0-5-2.24-5-5v-30c0-2.76-2.24-5-5-5 2.76 0 5-2.24 5-5v-30c0-2.76 2.24-5 5-5" stroke="#000" stroke-width="2" fill="none"/><path d="M583 530.02c0 .55-.45 1-1 1s-1-.45-1-1 .45-1 1-1 1 .45 1 1zm8 .24c0 .55-.44 1-1 1-.54 0-1-.45-1-1s.46-1 1-1c.56 0 1 .45 1 1zm8 .63c0 .55-.46 1-1 1-.56 0-1-.45-1-1 0-.56.44-1 1-1 .54 0 1 .44 1 1zm7.93 1.05c0 .55-.45 1-1 1s-1-.45-1-1c0-.56.45-1 1-1s1 .44 1 1zm7.85 1.57c0 .55-.45 1-1 1s-1-.45-1-1 .45-1 1-1 1 .45 1 1zm7.74 2.05c0 .55-.44 1-1 1-.55 0-1-.45-1-1 0-.56.45-1 1-1 .56 0 1 .44 1 1zm7.57 2.6c0 .56-.45 1-1 1-.56 0-1-.44-1-1 0-.55.44-1 1-1 .55 0 1 .45 1 1zm7.37 3.13c0 .55-.45 1-1 1s-1-.45-1-1 .45-1 1-1 1 .45 1 1zm7.16 3.6c0 .54-.45 1-1 1-.56 0-1-.46-1-1 0-.56.44-1 1-1 .55 0 1 .44 1 1zm6.9 4.04c0 .55-.44 1-1 1-.55 0-1-.45-1-1s.45-1 1-1c.56 0 1 .45 1 1zm6.7 4.4c0 .55-.45 1-1 1-.56 0-1-.45-1-1s.44-1 1-1c.55 0 1 .45 1 1zm6.55 4.6c0 .56-.45 1-1 1-.56 0-1-.44-1-1 0-.54.44-1 1-1 .55 0 1 .46 1 1zm6.45 4.76c0 .55-.45 1-1 1s-1-.45-1-1c0-.56.45-1 1-1s1 .44 1 1zm6.45 4.74c0 .55-.45 1-1 1s-1-.45-1-1 .45-1 1-1 1 .45 1 1zm6.45 4.75c0 .54-.44 1-1 1-.55 0-1-.46-1-1 0-.56.45-1 1-1 .56 0 1 .44 1 1zm6.46 4.73c0 .56-.46 1-1 1-.57 0-1-.44-1-1 0-.55.43-1 1-1 .54 0 1 .45 1 1zm6.64 4.46c0 .54-.45 1-1 1s-1-.46-1-1c0-.56.45-1 1-1s1 .44 1 1zm6.9 4.04c0 .55-.44 1-1 1-.55 0-1-.45-1-1s.45-1 1-1c.56 0 1 .45 1 1zm7.16 3.6c0 .55-.44 1-1 1-.55 0-1-.45-1-1 0-.56.45-1 1-1 .56 0 1 .44 1 1zm7.38 3.1c0 .57-.45 1-1 1-.56 0-1-.43-1-1 0-.54.44-1 1-1 .55 0 1 .46 1 1zm7.57 2.63c0 .55-.45 1-1 1s-1-.45-1-1c0-.56.45-1 1-1s1 .44 1 1zm7.74 2.04c0 .57-.46 1-1 1-.56 0-1-.43-1-1 0-.54.44-1 1-1 .54 0 1 .46 1 1zm7.84 1.6c0 .54-.45 1-1 1s-1-.46-1-1c0-.57.45-1 1-1s1 .43 1 1zm7.94 1.04c0 .55-.45 1-1 1s-1-.45-1-1c0-.56.45-1 1-1s1 .44 1 1zm7.98.63c0 .55-.44 1-1 1-.55 0-1-.45-1-1s.45-1 1-1c.56 0 1 .45 1 1zm8 .24c0 .56-.44 1-1 1-.54 0-1-.44-1-1 0-.54.46-1 1-1 .56 0 1 .46 1 1z"/><path d="M582.05 529.02l-.04 2-1-.02v-2z"/><path d="M764.74 600.33h4.03" stroke="#000" stroke-width="2" fill="none"/><path d="M583 651.35c0 .55-.44 1-1 1-.55 0-1-.45-1-1s.45-1 1-1c.56 0 1 .45 1 1zm7.87.15c0 .55-.45 1-1 1s-1-.45-1-1 .45-1 1-1 1 .45 1 1zm7.86.14c0 .56-.44 1-1 1-.55 0-1-.44-1-1 0-.55.45-1 1-1 .56 0 1 .45 1 1zm7.87.15c0 .54-.45 1-1 1s-1-.46-1-1c0-.56.45-1 1-1s1 .44 1 1zm7.87.14c0 .55-.45 1-1 1-.56 0-1-.45-1-1 0-.56.44-1 1-1 .55 0 1 .44 1 1zm7.86.14c0 .56-.45 1-1 1s-1-.44-1-1c0-.55.45-1 1-1s1 .45 1 1zm7.87.15c0 .55-.45 1-1 1-.56 0-1-.45-1-1s.44-1 1-1c.55 0 1 .45 1 1zm7.86.27c0 .55-.45 1-1 1-.56 0-1-.45-1-1s.44-1 1-1c.55 0 1 .45 1 1zm7.85.53c0 .55-.44 1-1 1-.55 0-1-.45-1-1 0-.56.45-1 1-1 .56 0 1 .44 1 1zm7.86.52c0 .55-.45 1-1 1-.56 0-1-.45-1-1s.44-1 1-1c.55 0 1 .45 1 1zm7.85.52c0 .56-.44 1-1 1-.55 0-1-.44-1-1 0-.55.45-1 1-1 .56 0 1 .45 1 1zm7.85.53c0 .55-.44 1-1 1-.55 0-1-.45-1-1s.45-1 1-1c.56 0 1 .45 1 1zm7.85.52c0 .55-.44 1-1 1-.55 0-1-.45-1-1s.45-1 1-1c.56 0 1 .45 1 1zm7.85.53c0 .55-.44 1-1 1-.55 0-1-.45-1-1 0-.56.45-1 1-1 .56 0 1 .44 1 1zm7.85.53c0 .55-.44 1-1 1-.55 0-1-.45-1-1 0-.56.45-1 1-1 .56 0 1 .44 1 1zm7.85.53c0 .56-.45 1-1 1s-1-.44-1-1c0-.55.45-1 1-1s1 .45 1 1zm7.85.54c0 .55-.45 1-1 1s-1-.45-1-1 .45-1 1-1 1 .45 1 1zm7.85.53c0 .55-.45 1-1 1s-1-.45-1-1 .45-1 1-1 1 .45 1 1zm7.85.53c0 .55-.45 1-1 1s-1-.45-1-1 .45-1 1-1 1 .45 1 1zm7.85.53c0 .55-.45 1-1 1s-1-.45-1-1 .45-1 1-1 1 .45 1 1zm7.86.27c0 .56-.44 1-1 1-.54 0-1-.44-1-1 0-.55.46-1 1-1 .56 0 1 .45 1 1zm7.87.15c0 .55-.44 1-1 1-.55 0-1-.45-1-1s.45-1 1-1c.56 0 1 .45 1 1zm7.87.15c0 .55-.45 1-1 1s-1-.45-1-1c0-.56.45-1 1-1s1 .44 1 1zm7.87.14c0 .55-.44 1-1 1-.55 0-1-.45-1-1s.45-1 1-1c.56 0 1 .45 1 1zm7.87.15c0 .54-.45 1-1 1s-1-.46-1-1c0-.56.45-1 1-1s1 .44 1 1zm7.87.14c0 .55-.45 1-1 1-.56 0-1-.45-1-1 0-.56.44-1 1-1 .55 0 1 .44 1 1zm7.86.14c0 .55-.45 1-1 1s-1-.45-1-1 .45-1 1-1 1 .45 1 1z"/><path d="M582.05 650.35l-.04 2-1-.02v-2zM790.3 659v.6l-3 .4 3 .4v.6h-4.02v-2z"/><path d="M1100 460h160v120h-160z" stroke="#000" stroke-width="2" fill="#7ab648"/><use xlink:href="#s" transform="matrix(1,0,0,1,1105,465) translate(21.484375 61.877170138888886)"/><use xlink:href="#t" transform="matrix(1,0,0,1,1105,465) translate(115.13671875 61.877170138888886)"/><path d="M1100 640h160v120h-160z" stroke="#000" stroke-width="2" fill="#7ab648"/><use xlink:href="#s" transform="matrix(1,0,0,1,1105,645) translate(21.484375 61.877170138888886)"/><use xlink:href="#u" transform="matrix(1,0,0,1,1105,645) translate(115.13671875 61.877170138888886)"/><path d="M840 640v120h120V640zM840 680h120M840 720h120" stroke="#000" stroke-width="2" fill="#c1e4f7"/><path d="M962 618.65l6.88-.15 9.63-.62 12.4-1.3 17.63-2.64 97.52-18.43 10.04-1.06 7.53-.48 5.98-.13 4.94.1 4.16.26 3.57.36 3.1.46 2.75.52 2.45.58 2.2.6 2 .66 1.83.68 1.67.7 1.55.73 1.44.74 1.34.78 1.26.8 1.18.82 1.12.84 1.06.88 1 .9.96.94.9.97.9 1.02.83 1.04.8 1.1.78 1.17.74 1.23.7 1.3.7 1.37.64 1.46.62 1.56.58 1.68.55 1.8.52 1.98.45 2.15.4 2.36.33 2.6.25 2.93.13 3.25" stroke="#000" stroke-width="2" fill="none"/><path d="M962.05 619.64l-1.05.03v-2l1-.03z"/><path d="M1167.9 620.97l11.9 16.08 8.36-18.17M962 578.65l.57-.02 1.53-.1 1.52-.15 1.5-.22 1.48-.3 1.5-.34 1.48-.4 1.5-.5 1.5-.56 1.54-.65 1.57-.72 1.6-.84 1.64-.96 1.7-1.08 1.8-1.24 1.86-1.42 1.97-1.63 2.1-1.87 2.24-2.2 2.45-2.6 2.7-3.13 3-3.8 3.5-4.8 4.18-6.33 5.5-9.1 9.73-17.87 23.05-43.57 6.1-10.1 4.78-7.2 4.05-5.57 3.57-4.5 3.22-3.75 2.97-3.15.6-.62 3.14-3 3.2-2.8 3.28-2.6 3.32-2.4 3.36-2.2 3.4-2 3.44-1.8 3.46-1.64 3.47-1.45 3.47-1.25 3.47-1.08 3.45-.9 3.42-.72 3.37-.55 3.32-.38 3.26-.23 3.18-.07 3.1.07 3 .2 2.9.35 2.8.44 2.7.57 2.57.68 2.47.77 2.35.85 2.24.94 2.13 1 2.03 1.07 1.92 1.15 1.83 1.2 1.72 1.23 1.63 1.3 1.54 1.34 1.45 1.4 1.35 1.42 1.3 1.5 1.2 1.5 1.12 1.6 1.05 1.6.98 1.7.9 1.72.84 1.78.76 1.85.7 1.9.6 2 .52 2.05.45 2.14.35 2.23.27 2.34.15 2.45v.56" stroke="#000" stroke-width="2" fill="none"/><path d="M962.05 579.64l-1.05.03v-2l1-.02z"/><path d="M1167.15 441.5l12.57 15.56 7.57-18.5" stroke="#000" stroke-width="2" fill="none"/><defs><path d="M930-1047c0-180-114-280-297-280H399v561h234c182 2 297-102 297-281zm211 0c0 308-189 448-508 447H399V0H197v-1493h436c317-2 508 140 508 446" id="v"/><path d="M1153-1120C1010-750 884-433 741-52c-66 176-110 283-133 322-55 94-138 156-276 156H184V272c97 0 188 7 236-47 29-33 70-112 117-243L104-1120h195l332 876 327-876h195" id="w"/><path d="M215-1493h203v1323h721V0H215v-1493" id="x"/><path d="M256-1120h471v977h365V0H178v-143h365v-834H256v-143zm287-436h184v233H543v-233" id="y"/><path d="M637-1147c132 1 237 25 336 66v180c-92-53-190-92-322-92-145 0-248 35-248 164 0 50 15 87 46 112 23 30 197 67 303 86 166 30 278 123 278 307 0 239-191 356-446 353-140-2-251-31-371-70v-190c114 58 228 103 375 106 145 3 253-56 256-188 3-87-90-149-253-179-210-38-374-93-374-319 0-232 173-338 420-336" id="z"/><path d="M807 0C529-4 430-92 430-369v-608H131v-143h299v-318h184v318h418v143H614v608c2 165 49 222 211 222h207V0H807" id="A"/><path d="M838-276c84-151 84-788 0-939-51-91-119-141-222-141-102 0-169 50-220 141-84 151-84 788 0 939 51 91 118 141 220 141 103 0 171-50 222-141zm278-469c0 260-42 454-124 582S785 29 616 29 322-35 240-162 117-484 117-745s41-455 123-583 208-192 376-192c169 0 294 64 376 192s124 322 124 583" id="B"/><path d="M850-236c87-126 87-521 0-646-49-70-112-109-201-109s-154 38-203 109c-89 127-89 518 0 645 49 71 114 110 203 110s152-39 201-109zM676 29c-146 0-244-69-299-170V0H193v-1556h184v579c53-101 154-170 301-170 297 0 434 260 434 584 0 329-136 592-436 592" id="C"/><path d="M420 270c135-3 180-101 180-250v-997H283v-143h501V20c2 243-112 405-344 406H186V270h234zm180-1826h184v233H600v-233" id="D"/><path d="M651-1147c298 0 466 229 461 541v90H315c-4 242 129 392 365 389 156-2 268-51 389-113v183C949-8 828 27 678 29c-351 3-555-232-555-588 0-338 200-588 528-588zm277 487c-4-201-91-331-285-331-193 0-305 144-321 332" id="E"/><path d="M748-127c144 0 233-46 313-121v191C974-6 875 28 748 29c-351 3-553-232-553-588 0-357 202-591 553-588 129 2 222 35 313 86v193c-88-76-165-123-313-123-245 0-359 174-359 432 0 257 115 432 359 432" id="F"/><g id="a"><use transform="matrix(0.013020833333333334,0,0,0.013020833333333334,0,0)" xlink:href="#v"/><use transform="matrix(0.013020833333333334,0,0,0.013020833333333334,16.0546875,0)" xlink:href="#w"/><use transform="matrix(0.013020833333333334,0,0,0.013020833333333334,32.109375,0)" xlink:href="#x"/><use transform="matrix(0.013020833333333334,0,0,0.013020833333333334,48.1640625,0)" xlink:href="#y"/><use transform="matrix(0.013020833333333334,0,0,0.013020833333333334,64.21875,0)" xlink:href="#z"/><use transform="matrix(0.013020833333333334,0,0,0.013020833333333334,80.2734375,0)" xlink:href="#A"/><use transform="matrix(0.013020833333333334,0,0,0.013020833333333334,96.328125,0)" xlink:href="#B"/><use transform="matrix(0.013020833333333334,0,0,0.013020833333333334,112.3828125,0)" xlink:href="#C"/><use transform="matrix(0.013020833333333334,0,0,0.013020833333333334,128.4375,0)" xlink:href="#D"/><use transform="matrix(0.013020833333333334,0,0,0.013020833333333334,144.4921875,0)" xlink:href="#E"/><use transform="matrix(0.013020833333333334,0,0,0.013020833333333334,160.546875,0)" xlink:href="#F"/><use transform="matrix(0.013020833333333334,0,0,0.013020833333333334,176.6015625,0)" xlink:href="#A"/></g><path d="M134-266C134-56 246 41 462 40c74 0 147-11 219-33v67c-76 24-152 36-227 36C201 107 56-16 56-265c0-211 110-342 262-407 52-21 107-31 166-31 256-11 395 180 332 438-22 90-69 166-173 172-46 0-80-20-102-61-37 40-76 62-148 63-92 1-142-58-142-149 5-149 68-252 208-260 52-3 87 20 106 54l9-49h73c-15 87-40 183-50 273-5 54 56 83 94 48 45-39 62-116 62-202 2-172-101-258-270-258-220 0-349 144-349 368zm195 27c0 51 25 80 77 80 96-3 127-86 134-182 2-61-20-99-82-94-95 7-124 96-129 196" id="G"/><use transform="matrix(0.018,0,0,0.018,0,0)" xlink:href="#G" id="b"/><path d="M533-30C544 88 432 80 329 89L299 8c47-6 113 1 143-22 9-11 10-27 10-48v-728l81 3v757zm346-31c-74-182-160-356-243-509l68-33c86 157 173 326 245 501zM26-99c90-137 166-318 216-494l77 23C269-390 191-206 102-64" id="H"/><use transform="matrix(0.018,0,0,0.018,0,0)" xlink:href="#H" id="c"/><path d="M308-659H73v-63h235v-83l75 2v81h216v-83l76 2v81h235v63H675v60h-76v-60H383v70h-75v-70zm249 460C662-114 793-50 948-5l-34 68C751 9 633-58 527-154v256h-76v-252C353-52 230 11 80 63L43-9c151-42 275-103 378-190H86v-66h365v-58l62 2c-25-50-60-102-94-143l41-28c-77 5-156 8-232 11 36 38 78 89 108 139l-59 53c-30-59-73-111-112-155l53-37c-35 2-68 3-97 3l-10-69c245-2 506-19 730-42l6 64c-108 12-241 23-360 31 30 39 63 84 89 127l-57 47h8v55h370v66H557zm72-126c48-48 96-115 129-176l60 37c-35 64-84 131-131 182" id="I"/><use transform="matrix(0.018,0,0,0.018,0,0)" xlink:href="#I" id="d"/><path d="M639-626c36-52 69-114 96-174l73 29c-22 41-58 105-83 145h166v193h-75v-122H168v122H93v-193h158c-20-45-45-94-74-131l69-29c27 41 58 94 80 140l-42 20h193c-17-54-43-110-67-157l70-23c25 46 51 111 71 163l-47 17h135zm285 470H547c-6 94 28 220-71 232-38 8-98 10-144 13l-22-72c48-6 110-1 144-19 26-28 9-104 14-154H60v-73h408v-48l167-105H222v-72h540v69L547-247v18h377v73" id="J"/><use transform="matrix(0.018,0,0,0.018,0,0)" xlink:href="#J" id="e"/><path d="M438-480c0 31-1 61-2 91h453c-2 142 9 294-4 429-4 44-49 51-96 56l-22-66c36-6 62 1 62-50v-109h-76V48h-57v-177h-76V48h-56v-177h-71V94h-61v-422C419-168 384-27 317 76l-65-34c24-32 43-65 59-103C234-40 141-17 56-3L38-75c91-12 186-36 268-58 2 24 4 47 6 70 70-160 58-407 59-642h224c-8-31-20-66-30-94l66-15c12 31 25 74 35 109h206v225H438zm-222 26c-52 2-105 3-149 13l-15-68c50-26 68-90 96-141 23-43 45-97 62-143l64 27c-37 88-83 180-132 254 32-4 73-5 108-6 18-34 37-70 52-105l55 29c-48 108-109 217-168 313 45-8 99-18 143-27l2 72c-76 13-170 22-239 41l-16-75c50-15 51-49 84-92 17-27 34-58 53-92zm222-189v100h368v-100H438zm126 454v-139h-71v139h71zm132 0v-139h-76v139h76zm133 0v-139h-76v139h76" id="K"/><use transform="matrix(0.018,0,0,0.018,0,0)" xlink:href="#K" id="f"/><path d="M294-372c39 42 82 94 114 143l-49 54c-26-46-60-92-93-132v414h-64v-417c-31 82-69 159-113 227l-60-41c69-96 126-209 167-331H69v-71h133v-132c-39 8-83 14-123 17l-14-69c110-9 224-35 316-63l14 68c-38 12-85 25-129 34v145h124v71H266v107zm561-109H430v-266h425v266zm-71-201H498v137h286v-137zM930-16v72H347v-72h259v-117H424v-69h182v-118H399v-69h500v69H677v118h190v69H677v117h253" id="L"/><use transform="matrix(0.018,0,0,0.018,0,0)" xlink:href="#L" id="g"/><path d="M586-613c1-62 4-128 4-190l73 4c-2 60-2 125-3 186h228c-6 179-19 377-19 555 0 125-99 125-207 137L639 1c77-10 160 5 160-95 0-142 12-302 17-446H658c-6 230-18 431-119 564-19 29-42 59-69 92l-64-45C513-40 576-174 579-388c2-44 4-95 6-152H458v-73h128zm-125-41H107v-71h354v71zm-86 331c40 85 84 186 111 283L421 2c-4-16-9-34-15-54C304-35 181-26 91 0L63-76c59-30 68-108 97-171 22-48 39-107 54-158H56v-72h436v72H291c-33 104-71 220-116 311 63-10 142-19 207-28-21-57-48-127-74-175" id="M"/><use transform="matrix(0.02666666666666667,0,0,0.02666666666666667,0,0)" xlink:href="#M" id="h"/><path d="M501-304c-38-45-89-89-138-124-80 61-172 103-285 144l-41-73c169-55 315-108 381-257H83v-70h356c6-37 11-80 13-120l76 7c-4 37-7 79-13 113h386v70H544c90 129 227 207 412 255l-34 70c-196-54-342-149-437-291-18 41-40 74-70 105 45 33 94 72 132 111zm55 209c-31-61-72-120-113-170l52-39c41 48 84 105 117 162zm67 89c29-19 26-71 32-113l67 24c-12 71-10 155-87 162-70 9-160 9-237 5-79-5-109-27-109-108v-243l74 2v215c1 52 10 63 58 67 64 3 153 7 202-11zm246 33c-42-91-98-189-155-265l56-37c57 75 118 169 162 256zM52 0c43-72 87-174 116-261l66 21c-34 92-74 197-119 274" id="N"/><use transform="matrix(0.02666666666666667,0,0,0.02666666666666667,0,0)" xlink:href="#N" id="i"/><path d="M854-568c-14 163-37 308-101 420C800-81 865-16 947 46l-52 54C824 43 765-15 713-85 656-10 590 46 508 105l-46-56c87-59 155-115 209-197-51-88-80-181-99-298-11 19-22 39-34 57l-56-36c71-101 123-233 152-375l70 17c-11 50-25 97-42 143h260v72h-68zM31-362c88-42 159-100 219-166H62v-61h205v-205l67 4v201h180v61H334v186h-67v-123c-55 63-121 115-200 157zm337-270c30-40 57-90 78-139l56 25c-23 50-53 101-84 142zm-206 27c-15-50-40-98-63-140l53-20c25 40 48 93 65 141zm458 65c15 128 40 228 90 322 47-102 63-210 77-350H632zm-235 45c39 30 92 84 126 123l-40 46c-37-45-83-94-126-132zm-7 428c31 16 61 28 93 44l-27 66c-38-23-78-43-119-64C253 31 175 64 73 98L38 35c88-26 156-50 221-89-51-25-101-46-149-64 19-31 38-63 55-95H49v-60h146c11-23 21-46 30-70l64 21c-7 17-13 33-20 49h208v57c-28 58-55 106-99 149zM240-213c-12 25-26 48-39 71 39 16 75 30 114 48 40-34 64-71 88-119H240" id="O"/><use transform="matrix(0.02666666666666667,0,0,0.02666666666666667,0,0)" xlink:href="#O" id="j"/><path d="M251-448c-61 5-129 4-183 15l-19-65c58-26 79-87 115-141 26-45 54-101 76-149l64 28c-41 86-90 180-145 252 42-1 92-6 136-6 22-35 44-73 62-110l60 32c-62 116-139 225-213 325 53-8 121-17 173-26l1 69c-89 17-197 28-284 47l-20-70c61-19 74-67 114-112 21-28 42-58 63-89zM943-5v70H352V-5h96v-748h399V-5h96zM521-682v175h252v-175H521zm252 244H521v169h252v-169zM521-5h252v-195H521V-5zM36-46c113-13 231-33 338-52 1 23 3 46 4 69C275-11 159 7 54 23" id="P"/><use transform="matrix(0.02666666666666667,0,0,0.02666666666666667,0,0)" xlink:href="#P" id="k"/><path fill="#3e4349" d="M616-991c-93 0-161 39-212 109-92 126-92 520 0 646 52 70 119 109 212 109 94 0 161-39 213-109 93-126 92-520 0-646-52-70-119-109-213-109zM137-559c0-353 146-588 479-588s480 235 480 588c0 355-145 588-480 588-334 0-479-234-479-588" id="Q"/><path fill="#3e4349" d="M850-236c87-126 87-521 0-646-49-70-112-109-201-109s-154 38-203 109c-89 127-89 518 0 645 49 71 114 110 203 110s152-39 201-109zM676 29c-146 0-244-69-299-170V0H193v-1556h184v579c53-101 154-170 301-170 297 0 434 260 434 584 0 329-136 592-436 592" id="R"/><path fill="#3e4349" d="M1233 403v80H0v-80h1233" id="S"/><path fill="#3e4349" d="M915-1147c102 0 174 26 240 70v188c-71-55-140-88-254-88-243 0-354 165-354 420V0H362v-1120h185v219c55-146 178-246 368-246" id="T"/><path fill="#3e4349" d="M651-1147c298 0 466 229 461 541v90H315c-4 242 129 392 365 389 156-2 268-51 389-113v183C949-8 828 27 678 29c-351 3-555-232-555-588 0-338 200-588 528-588zm277 487c-4-201-91-331-285-331-193 0-305 144-321 332" id="U"/><path fill="#3e4349" d="M494-1120c-16-286 77-439 348-436h221v153H854c-136 2-174 46-176 184v99h385v143H678V0H494v-977H195v-143h299" id="V"/><path fill="#3e4349" d="M748-127c144 0 233-46 313-121v191C974-6 875 28 748 29c-351 3-553-232-553-588 0-357 202-591 553-588 129 2 222 35 313 86v193c-88-76-165-123-313-123-245 0-359 174-359 432 0 257 115 432 359 432" id="W"/><path fill="#3e4349" d="M711-1147c253 0 340 178 340 453V0H866v-694c-1-183-51-293-219-293-189 0-268 148-268 354V0H195v-1120h184v168c60-118 165-195 332-195" id="X"/><path fill="#3e4349" d="M807 0C529-4 430-92 430-369v-608H131v-143h299v-318h184v318h418v143H614v608c2 165 49 222 211 222h207V0H807" id="Y"/><g id="l"><use transform="matrix(0.010850694444444444,0,0,0.010850694444444444,0,0)" xlink:href="#Q"/><use transform="matrix(0.010850694444444444,0,0,0.010850694444444444,13.37890625,0)" xlink:href="#R"/><use transform="matrix(0.010850694444444444,0,0,0.010850694444444444,26.7578125,0)" xlink:href="#S"/><use transform="matrix(0.010850694444444444,0,0,0.010850694444444444,40.13671875,0)" xlink:href="#T"/><use transform="matrix(0.010850694444444444,0,0,0.010850694444444444,53.515625,0)" xlink:href="#U"/><use transform="matrix(0.010850694444444444,0,0,0.010850694444444444,66.89453125,0)" xlink:href="#V"/><use transform="matrix(0.010850694444444444,0,0,0.010850694444444444,80.2734375,0)" xlink:href="#W"/><use transform="matrix(0.010850694444444444,0,0,0.010850694444444444,93.65234375,0)" xlink:href="#X"/><use transform="matrix(0.010850694444444444,0,0,0.010850694444444444,107.03125,0)" xlink:href="#Y"/></g><path fill="#3e4349" d="M1153-1120C1010-750 884-433 741-52c-66 176-110 283-133 322-55 94-138 156-276 156H184V272c97 0 188 7 236-47 29-33 70-112 117-243L104-1120h195l332 876 327-876h195" id="Z"/><path fill="#3e4349" d="M674 29c-147 0-246-68-299-170v567H190v-1546h185v143c55-101 152-170 299-170 300 0 434 263 434 592 0 325-137 584-434 584zm174-265c87-125 87-521 0-646-48-70-112-109-201-109s-154 38-203 109c-89 127-89 518 0 645 49 71 114 110 203 110s153-39 201-109" id="aa"/><g id="m"><use transform="matrix(0.010850694444444444,0,0,0.010850694444444444,0,0)" xlink:href="#Q"/><use transform="matrix(0.010850694444444444,0,0,0.010850694444444444,13.37890625,0)" xlink:href="#R"/><use transform="matrix(0.010850694444444444,0,0,0.010850694444444444,26.7578125,0)" xlink:href="#S"/><use transform="matrix(0.010850694444444444,0,0,0.010850694444444444,40.13671875,0)" xlink:href="#Y"/><use transform="matrix(0.010850694444444444,0,0,0.010850694444444444,53.515625,0)" xlink:href="#Z"/><use transform="matrix(0.010850694444444444,0,0,0.010850694444444444,66.89453125,0)" xlink:href="#aa"/><use transform="matrix(0.010850694444444444,0,0,0.010850694444444444,80.2734375,0)" xlink:href="#U"/></g><path d="M616-170l351-1323h209L739 0H494L57-1493h209" id="ab"/><path d="M547-125c229-2 340-186 327-438H641c-189 0-321 55-324 225-3 137 91 215 230 213zm-332-944c167-71 431-115 615-37 106 45 186 120 213 246 11 49 16 123 16 221V0H874v-166C800-42 695 26 508 29c-220 3-378-138-375-355 4-274 199-382 494-381h247c6-204-80-285-282-284-149 1-272 46-377 106v-184" id="ac"/><path d="M915-1147c102 0 174 26 240 70v188c-71-55-140-88-254-88-243 0-354 165-354 420V0H362v-1120h185v219c55-146 178-246 368-246" id="ad"/><g id="n"><use transform="matrix(0.010850694444444444,0,0,0.010850694444444444,0,0)" xlink:href="#v"/><use transform="matrix(0.010850694444444444,0,0,0.010850694444444444,13.37890625,0)" xlink:href="#w"/><use transform="matrix(0.010850694444444444,0,0,0.010850694444444444,26.7578125,0)" xlink:href="#ab"/><use transform="matrix(0.010850694444444444,0,0,0.010850694444444444,40.13671875,0)" xlink:href="#ac"/><use transform="matrix(0.010850694444444444,0,0,0.010850694444444444,53.515625,0)" xlink:href="#ad"/><use transform="matrix(0.010850694444444444,0,0,0.010850694444444444,66.89453125,0)" xlink:href="#B"/><use transform="matrix(0.010850694444444444,0,0,0.010850694444444444,80.2734375,0)" xlink:href="#C"/><use transform="matrix(0.010850694444444444,0,0,0.010850694444444444,93.65234375,0)" xlink:href="#D"/><use transform="matrix(0.010850694444444444,0,0,0.010850694444444444,107.03125,0)" xlink:href="#E"/><use transform="matrix(0.010850694444444444,0,0,0.010850694444444444,120.41015625,0)" xlink:href="#F"/><use transform="matrix(0.010850694444444444,0,0,0.010850694444444444,133.7890625,0)" xlink:href="#A"/></g><path fill="#3e4349" d="M637-1147c132 1 237 25 336 66v180c-92-53-190-92-322-92-145 0-248 35-248 164 0 50 15 87 46 112 23 30 197 67 303 86 166 30 278 123 278 307 0 239-191 356-446 353-140-2-251-31-371-70v-190c114 58 228 103 375 106 145 3 253-56 256-188 3-87-90-149-253-179-210-38-374-93-374-319 0-232 173-338 420-336" id="ae"/><path fill="#3e4349" d="M256-1120h471v977h365V0H178v-143h365v-834H256v-143zm287-436h184v233H543v-233" id="af"/><path fill="#3e4349" d="M227-1122h813v168L397-150h643V0H203v-170l643-805H227v-147" id="ag"/><path fill="#3e4349" d="M88-524h1057v172H88v-172zm0-406h1057v170H88v-170" id="ah"/><path fill="#3e4349" d="M563-1520c272-5 493 161 486 422-5 184-82 278-189 404-156 183-266 291-487 524h686V0H152v-170c181-191 381-399 520-561 68-80 112-147 135-197s35-102 35-155c2-166-108-271-275-267-164 4-280 61-403 133v-204c119-56 242-96 399-99" id="ai"/><g id="o"><use transform="matrix(0.010850694444444444,0,0,0.010850694444444444,0,0)" xlink:href="#Q"/><use transform="matrix(0.010850694444444444,0,0,0.010850694444444444,13.37890625,0)" xlink:href="#R"/><use transform="matrix(0.010850694444444444,0,0,0.010850694444444444,26.7578125,0)" xlink:href="#S"/><use transform="matrix(0.010850694444444444,0,0,0.010850694444444444,40.13671875,0)" xlink:href="#ae"/><use transform="matrix(0.010850694444444444,0,0,0.010850694444444444,53.515625,0)" xlink:href="#af"/><use transform="matrix(0.010850694444444444,0,0,0.010850694444444444,66.89453125,0)" xlink:href="#ag"/><use transform="matrix(0.010850694444444444,0,0,0.010850694444444444,80.2734375,0)" xlink:href="#U"/><use transform="matrix(0.010850694444444444,0,0,0.010850694444444444,93.65234375,0)" xlink:href="#ah"/><use transform="matrix(0.010850694444444444,0,0,0.010850694444444444,107.03125,0)" xlink:href="#ai"/></g><path fill="#3e4349" d="M471-1147c112 0 171 55 205 141 41-85 99-141 213-141 90 0 154 35 191 105s55 200 55 393V0H967v-641c0-158-12-256-27-295-31-81-176-72-206 4-17 42-29 138-29 291V0H537v-641c0-160-10-259-29-296s-53-56-102-56-83 20-102 61-28 138-28 291V0H109v-1120h167v96c38-70 97-123 195-123" id="aj"/><g id="p"><use transform="matrix(0.010850694444444444,0,0,0.010850694444444444,0,0)" xlink:href="#Q"/><use transform="matrix(0.010850694444444444,0,0,0.010850694444444444,13.37890625,0)" xlink:href="#R"/><use transform="matrix(0.010850694444444444,0,0,0.010850694444444444,26.7578125,0)" xlink:href="#S"/><use transform="matrix(0.010850694444444444,0,0,0.010850694444444444,40.13671875,0)" xlink:href="#af"/><use transform="matrix(0.010850694444444444,0,0,0.010850694444444444,53.515625,0)" xlink:href="#Y"/><use transform="matrix(0.010850694444444444,0,0,0.010850694444444444,66.89453125,0)" xlink:href="#U"/><use transform="matrix(0.010850694444444444,0,0,0.010850694444444444,80.2734375,0)" xlink:href="#aj"/></g><path fill="#3e4349" d="M547-125c229-2 340-186 327-438H641c-189 0-321 55-324 225-3 137 91 215 230 213zm-332-944c167-71 431-115 615-37 106 45 186 120 213 246 11 49 16 123 16 221V0H874v-166C800-42 695 26 508 29c-220 3-378-138-375-355 4-274 199-382 494-381h247c6-204-80-285-282-284-149 1-272 46-377 106v-184" id="ak"/><path fill="#3e4349" d="M801 0C570 0 455-164 455-406v-1017H160v-144h479v1161c0 147 46 250 180 250h215V0H801" id="al"/><path fill="#3e4349" d="M559-1147c146 0 246 68 299 170v-579h184V0H858v-141C803-40 706 29 559 29c-300 0-436-264-436-592 0-325 139-584 436-584zM385-882c-81 129-87 521 0 646 49 70 112 109 201 109s152-39 202-110c89-127 83-514 0-645-88-139-315-140-403 0" id="am"/><path fill="#3e4349" d="M512-817c-121 1-221 29-305 74v-750h756v170H391v367c52-19 108-31 174-31 306-4 504 201 504 508 0 316-212 508-532 508-154 0-286-20-394-64v-205c109 59 223 97 375 99 219 2 348-121 348-338 0-215-137-340-354-338" id="an"/><g id="q"><use transform="matrix(0.010850694444444444,0,0,0.010850694444444444,0,0)" xlink:href="#ak"/><use transform="matrix(0.010850694444444444,0,0,0.010850694444444444,13.37890625,0)" xlink:href="#al"/><use transform="matrix(0.010850694444444444,0,0,0.010850694444444444,26.7578125,0)" xlink:href="#al"/><use transform="matrix(0.010850694444444444,0,0,0.010850694444444444,40.13671875,0)" xlink:href="#Q"/><use transform="matrix(0.010850694444444444,0,0,0.010850694444444444,53.515625,0)" xlink:href="#W"/><use transform="matrix(0.010850694444444444,0,0,0.010850694444444444,66.89453125,0)" xlink:href="#ak"/><use transform="matrix(0.010850694444444444,0,0,0.010850694444444444,80.2734375,0)" xlink:href="#Y"/><use transform="matrix(0.010850694444444444,0,0,0.010850694444444444,93.65234375,0)" xlink:href="#U"/><use transform="matrix(0.010850694444444444,0,0,0.010850694444444444,107.03125,0)" xlink:href="#am"/><use transform="matrix(0.010850694444444444,0,0,0.010850694444444444,120.41015625,0)" xlink:href="#ah"/><use transform="matrix(0.010850694444444444,0,0,0.010850694444444444,133.7890625,0)" xlink:href="#an"/></g><g id="r"><use transform="matrix(0.010850694444444444,0,0,0.010850694444444444,0,0)" xlink:href="#v"/><use transform="matrix(0.010850694444444444,0,0,0.010850694444444444,13.37890625,0)" xlink:href="#w"/><use transform="matrix(0.010850694444444444,0,0,0.010850694444444444,26.7578125,0)" xlink:href="#B"/><use transform="matrix(0.010850694444444444,0,0,0.010850694444444444,40.13671875,0)" xlink:href="#C"/><use transform="matrix(0.010850694444444444,0,0,0.010850694444444444,53.515625,0)" xlink:href="#D"/><use transform="matrix(0.010850694444444444,0,0,0.010850694444444444,66.89453125,0)" xlink:href="#E"/><use transform="matrix(0.010850694444444444,0,0,0.010850694444444444,80.2734375,0)" xlink:href="#F"/><use transform="matrix(0.010850694444444444,0,0,0.010850694444444444,93.65234375,0)" xlink:href="#A"/></g><g id="s"><use transform="matrix(0.010850694444444444,0,0,0.010850694444444444,0,0)" xlink:href="#B"/><use transform="matrix(0.010850694444444444,0,0,0.010850694444444444,13.37890625,0)" xlink:href="#C"/><use transform="matrix(0.010850694444444444,0,0,0.010850694444444444,26.7578125,0)" xlink:href="#D"/><use transform="matrix(0.010850694444444444,0,0,0.010850694444444444,40.13671875,0)" xlink:href="#E"/><use transform="matrix(0.010850694444444444,0,0,0.010850694444444444,53.515625,0)" xlink:href="#F"/><use transform="matrix(0.010850694444444444,0,0,0.010850694444444444,66.89453125,0)" xlink:href="#A"/></g><path d="M270-170h314v-1141l-338 76v-184l336-74h202v1323h310V0H270v-170" id="ao"/><use transform="matrix(0.010850694444444444,0,0,0.010850694444444444,0,0)" xlink:href="#ao" id="t"/><path d="M563-1520c272-5 493 161 486 422-5 184-82 278-189 404-156 183-266 291-487 524h686V0H152v-170c181-191 381-399 520-561 68-80 112-147 135-197s35-102 35-155c2-166-108-271-275-267-164 4-280 61-403 133v-204c119-56 242-96 399-99" id="ap"/><use transform="matrix(0.010850694444444444,0,0,0.010850694444444444,0,0)" xlink:href="#ap" id="u"/></defs></g></svg>